<svg width="27" height="27" viewBox="0 0 27 27" fill="none" xmlns="http://www.w3.org/2000/svg">
<g opacity="0.4">
<path d="M13.6116 8.56C11.6376 8.56 10.2376 9.918 10.1816 11.794L11.7776 11.948C11.8056 10.898 12.5196 10.156 13.5556 10.156C14.4796 10.156 15.1236 10.744 15.1236 11.598C15.1236 13.236 12.6036 13.11 12.6036 15.658H14.1716C14.1716 14.09 16.8036 14.062 16.8036 11.43C16.8036 9.75 15.4736 8.56 13.6116 8.56ZM13.4296 18.64C14.0456 18.64 14.5076 18.164 14.5076 17.576C14.5076 16.974 14.0456 16.512 13.4296 16.512C12.8276 16.512 12.3516 16.974 12.3516 17.576C12.3516 18.164 12.8276 18.64 13.4296 18.64Z" fill="#18332F"/>
<circle cx="13.5" cy="13.5" r="12.5" stroke="#18332F" stroke-width="2"/>
</g>
</svg>
